<svg width="120" height="116" viewBox="0 0 120 116" fill="none" xmlns="http://www.w3.org/2000/svg">
<path d="M46.5015 114.304C43.558 113.549 38.2597 111.476 34.7275 109.698C31.1952 107.92 26.2375 104.706 23.7102 102.556C21.1829 100.406 17.7772 97.0158 16.1421 95.0224C14.5069 93.029 11.9988 89.42 10.5686 87.0024C9.13845 84.5848 7.96828 82.1981 7.96828 81.6985C7.96828 81.199 8.28287 80.7903 8.66736 80.7903C9.05185 80.7903 10.0591 82.1551 10.9057 83.823C11.7524 85.491 13.4337 88.3007 14.6419 90.0668C15.8502 91.8329 18.1343 94.6855 19.7177 96.4059C21.3011 98.1263 24.3627 100.892 26.5213 102.552C28.6799 104.212 32.7607 106.736 35.5898 108.16C38.4189 109.584 43.2356 111.468 46.2935 112.347L51.8533 113.946H60.773H69.6928L75.3527 112.32C78.4657 111.426 83.9246 109.192 87.4835 107.357L93.9544 104.02L100.377 97.5695C104.586 93.3418 107.782 89.3451 109.653 85.9712C111.223 83.1399 112.914 80.8159 113.411 80.8068C114.013 80.7959 113.687 82.0417 112.434 84.5366C111.399 86.5971 108.935 90.4771 106.959 93.1588C104.982 95.8406 101.087 99.957 98.3028 102.307C95.5187 104.656 90.3508 108.004 86.8186 109.747C83.2864 111.49 77.8565 113.554 74.752 114.336L69.1077 115.756L60.4805 115.716L51.8533 115.677L46.5015 114.304ZM52.8306 109.283C50.6208 108.958 46.7675 108.011 44.2677 107.177C41.7678 106.344 37.9564 104.683 35.7978 103.487C33.6393 102.29 30.451 100.158 28.7128 98.7479C26.9746 97.3379 24.8647 95.5304 24.024 94.7311C23.1834 93.9319 21.128 91.5308 19.4564 89.3955C17.7849 87.2602 15.6401 83.9795 14.6903 82.1051C13.7405 80.2306 12.9633 78.5258 12.9633 78.3165C12.9633 78.1072 13.2656 77.936 13.6351 77.936C14.0045 77.936 15.3453 79.8844 16.6146 82.2658C17.8838 84.6472 20.972 88.8095 23.4772 91.5153C25.9824 94.2212 30.3035 97.9451 33.0797 99.7907C35.8559 101.636 40.8945 104.11 44.2767 105.289L50.4262 107.431L58.5446 107.762C63.4309 107.961 68.2604 107.755 70.6754 107.243C72.8822 106.776 76.4539 105.713 78.6125 104.882C80.7711 104.051 84.1487 102.476 86.1183 101.382C88.088 100.288 91.3401 97.9931 93.3452 96.2815C95.3504 94.57 97.9507 92.0701 99.1237 90.7262C100.297 89.3824 102.369 86.5168 103.728 84.3582C105.087 82.1996 106.405 79.8716 106.655 79.1848C106.906 78.4979 107.442 77.936 107.847 77.936C108.252 77.936 108.583 78.3187 108.583 78.7865C108.583 79.2542 107.247 81.8857 105.614 84.6342C103.981 87.3827 100.511 91.7651 97.9037 94.3729C95.2959 96.9807 90.8699 100.476 88.068 102.141C85.2661 103.805 80.7555 105.939 78.0443 106.882C75.3332 107.824 70.9 108.916 68.1928 109.307C65.4856 109.699 61.8256 109.986 60.0595 109.946C58.2934 109.906 55.0404 109.607 52.8306 109.283ZM58.257 103.773C58.4668 103.226 58.8324 102.006 59.0695 101.061C59.3066 100.116 59.9126 99.3433 60.4162 99.3433C60.9199 99.3433 61.5259 100.116 61.763 101.061C62.0001 102.006 62.3657 103.226 62.5755 103.773L62.9569 104.767H60.4162H57.8756L58.257 103.773ZM60.773 102.554C60.773 102.358 60.6125 102.198 60.4162 102.198C60.22 102.198 60.0595 102.358 60.0595 102.554C60.0595 102.751 60.22 102.911 60.4162 102.911C60.6125 102.911 60.773 102.751 60.773 102.554ZM52.3528 103.482C51.8819 103.011 51.4965 102.059 51.4965 101.366C51.4965 100.674 52.1155 99.7759 52.872 99.371C53.6285 98.9661 54.7524 98.8286 55.3695 99.0655C55.9866 99.3023 56.4916 99.9826 56.4916 100.577V101.659L55.4525 100.796C54.881 100.322 54.0782 100.141 53.6685 100.394C53.2589 100.648 52.9237 101.317 52.9237 101.883C52.9237 102.51 53.6355 102.911 54.7497 102.911C55.7854 102.911 56.3849 103.22 56.1348 103.625C55.8922 104.017 55.1347 104.338 54.4514 104.338C53.7682 104.338 52.8238 103.953 52.3528 103.482ZM64.8494 103.895C64.5697 103.616 64.3409 102.649 64.3409 101.747C64.3409 100.845 64.9599 99.7759 65.7164 99.371C66.4729 98.9661 67.5968 98.8286 68.2139 99.0655C68.831 99.3023 69.336 99.803 69.336 100.178C69.336 100.553 68.6214 100.76 67.748 100.637C66.6554 100.483 66.0769 100.833 65.8934 101.758L65.6268 103.101L67.5512 102.618L69.4756 102.135L69.1724 103.059C69.0056 103.566 68.0791 104.077 67.1135 104.193C66.1479 104.309 65.1291 104.175 64.8494 103.895ZM70.932 100.639C70.4603 99.3895 70.2347 98.2068 70.4306 98.0108C70.6266 97.8149 71.1669 98.0345 71.6313 98.4989C72.0957 98.9634 72.7326 99.3433 73.0466 99.3433C73.3606 99.3433 73.6174 98.8617 73.6174 98.273C73.6174 97.6843 73.8681 97.2026 74.1746 97.2026C74.481 97.2026 75.1176 98.225 75.5893 99.4747C76.061 100.724 76.2866 101.907 76.0907 102.103C75.8947 102.299 75.3544 102.079 74.89 101.615C74.4256 101.15 73.7887 100.771 73.4747 100.771C73.1607 100.771 72.9039 101.252 72.9039 101.841C72.9039 102.43 72.6531 102.911 72.3467 102.911C72.0403 102.911 71.4037 101.889 70.932 100.639ZM43.6472 98.6298C43.6472 97.0599 43.9683 95.7755 44.3608 95.7755C44.7532 95.7755 45.0743 96.2271 45.0743 96.779C45.0743 97.4601 45.5902 97.6567 46.6799 97.3908L48.2854 96.999L46.1896 99.2416C45.0369 100.475 43.9933 101.484 43.8705 101.484C43.7477 101.484 43.6472 100.2 43.6472 98.6298ZM77.488 99.0041C76.8428 98.0194 76.5006 96.7295 76.7277 96.1378C76.9548 95.546 77.7126 95.0872 78.4117 95.1182C79.1593 95.1513 79.3154 95.3228 78.7909 95.5345C78.3003 95.7324 77.8989 96.1787 77.8989 96.5261C77.8989 96.8736 78.3806 96.973 78.9693 96.7471C79.558 96.5212 80.0396 96.6918 80.0396 97.1263C80.0396 97.5607 79.6382 97.9482 79.1477 97.9873C78.6571 98.0264 79.0585 98.287 80.0396 98.5662L81.8236 99.074L80.2424 99.9343L78.6612 100.795L77.488 99.0041ZM82.002 96.154C81.3152 95.2094 80.7532 94.0895 80.7532 93.6653C80.7532 93.1811 81.4836 93.0759 82.7156 93.3827L84.6779 93.8715L83.7513 92.7462C83.1846 92.0581 83.0941 91.4545 83.5183 91.1923C83.8998 90.9566 84.8787 91.7 85.6937 92.8445C86.5086 93.989 87.1754 95.1515 87.1754 95.4278C87.1754 95.7041 86.347 95.7223 85.3345 95.4682L83.4937 95.0062L83.9555 96.4612C84.2095 97.2615 84.1548 97.9062 83.834 97.8938C83.5132 97.8815 82.6888 97.0985 82.002 96.154ZM36.2518 96.1281C36.0267 95.5417 35.3509 95.0619 34.7498 95.0619C34.1488 95.0619 33.6571 94.749 33.6571 94.3666C33.6571 93.9842 34.6299 93.1683 35.8188 92.5535C37.0077 91.9387 38.273 91.6164 38.6305 91.8374C39.015 92.075 38.9778 93.1075 38.5392 94.3654C38.1316 95.5348 37.5422 96.6498 37.2295 96.843C36.9168 97.0363 36.4768 96.7146 36.2518 96.1281ZM37.225 93.9915C37.225 93.7953 37.0644 93.6347 36.8682 93.6347C36.672 93.6347 36.5114 93.7953 36.5114 93.9915C36.5114 94.1877 36.672 94.3483 36.8682 94.3483C37.0644 94.3483 37.225 94.1877 37.225 93.9915ZM31.1888 92.2548C30.9258 91.8293 30.9383 90.7641 31.2165 89.8876L31.7222 88.2941L30.5317 89.2821C29.8769 89.8256 29.1087 90.0377 28.8245 89.7536C28.5404 89.4694 29.249 88.5514 30.3992 87.7135C31.5494 86.8757 33.0423 86.1059 33.7168 86.003C34.3914 85.9 35.1255 86.2906 35.3482 86.871C35.5708 87.4513 35.442 87.9261 35.0618 87.9261C34.6817 87.9261 34.3706 87.586 34.3706 87.1704C34.3706 86.7548 34.0495 86.6132 33.6571 86.8557C33.2646 87.0983 32.9435 87.7494 32.9435 88.3026C32.9435 88.9035 33.3744 89.1431 34.0139 88.8977C34.6026 88.6718 35.0842 88.7865 35.0842 89.1525C35.0842 89.5186 34.3153 90.5404 33.3756 91.4233C32.2716 92.4604 31.4977 92.7547 31.1888 92.2548ZM87.2857 91.7764C86.4401 91.1841 85.7483 90.2753 85.7483 89.7569C85.7483 89.2385 86.2394 88.4068 86.8397 87.9085L87.9313 87.0027L89.6941 87.8059C90.7075 88.2676 91.4569 89.2116 91.4569 90.0264C91.4569 90.806 90.8643 91.7609 90.1401 92.1485L88.8232 92.8533L87.2857 91.7764ZM89.4995 90.2469C89.0503 90.0971 88.861 89.5101 89.0789 88.9423L89.4751 87.9099L88.3252 88.3511C87.6928 88.5938 87.1754 89.0149 87.1754 89.2869C87.1754 89.5589 87.5479 90.1539 88.0032 90.6092C88.4585 91.0645 89.1652 91.2305 89.5736 90.9781C90.0707 90.6709 90.0462 90.4291 89.4995 90.2469ZM26.1972 85.97C25.8823 85.1494 26.2468 84.3013 27.2703 83.4725C28.1227 82.7822 29.0664 82.2175 29.3673 82.2175C29.6682 82.2175 30.3206 82.7069 30.8171 83.3051C31.3135 83.9033 31.496 84.6165 31.2225 84.89C30.949 85.1635 30.4264 84.9148 30.0613 84.3375L29.3975 83.2878L29.3866 84.5142C29.3794 85.3133 28.9999 85.5964 28.2972 85.3267L27.2187 84.9129L27.66 86.0627C27.9026 86.6951 27.7801 87.2125 27.3876 87.2125C26.9951 87.2125 26.4594 86.6534 26.1972 85.97ZM90.4386 86.1424C89.6823 85.5617 89.2534 84.8966 89.4855 84.6646C89.7176 84.4325 90.6047 84.6157 91.4569 85.0718C92.309 85.5278 93.2196 85.6868 93.4803 85.425C93.7411 85.1631 93.225 84.3576 92.3335 83.6348C91.442 82.912 90.9883 82.1503 91.3253 81.942C91.6622 81.7338 92.6507 82.0627 93.5219 82.6729C94.5049 83.3614 95.0229 84.3655 94.887 85.3191C94.7571 86.2305 94.0873 86.9254 93.2408 87.027C92.4559 87.1212 91.1949 86.7231 90.4386 86.1424ZM94.6343 80.9257C93.2231 80.1431 92.5527 79.2817 92.7243 78.4712C92.8697 77.7844 93.2862 77.2224 93.6499 77.2224C94.0136 77.2224 94.3366 77.7844 94.3675 78.4712C94.4012 79.2172 94.5688 79.3608 94.7838 78.828C94.9817 78.3374 95.4724 77.936 95.8742 77.936C96.2759 77.936 96.4198 78.4177 96.1939 79.0064C95.968 79.5951 96.0942 80.0767 96.4743 80.0767C96.8545 80.0767 97.1655 79.7556 97.1655 79.3632C97.1655 78.9707 97.4866 78.6496 97.8791 78.6496C98.2715 78.6496 98.5927 78.9093 98.5927 79.2268C98.5927 79.5442 98.1913 80.3276 97.7007 80.9677L96.8087 82.1314L94.6343 80.9257ZM25.5677 80.4806C25.3258 79.85 24.6837 79.5654 24.0508 79.8083C23.4472 80.0399 22.9534 79.9129 22.9534 79.5261C22.9534 79.1392 23.9464 78.4114 25.1601 77.9087L27.3667 76.9947L28.0135 78.0005C28.3692 78.5537 28.5767 79.4843 28.4746 80.0685C28.3724 80.6527 27.771 81.2304 27.1381 81.3523C26.5052 81.4742 25.7985 81.0819 25.5677 80.4806ZM26.997 78.8874C26.7354 78.6258 26.5213 78.8399 26.5213 79.3632C26.5213 79.8864 26.7354 80.1005 26.997 79.8389C27.2587 79.5772 27.2587 79.1491 26.997 78.8874ZM0.2973 74.1897L0.594601 73.2977L58.6917 73.106C90.6452 73.0005 117.511 73.0869 118.394 73.298C119.277 73.509 120 73.9967 120 74.3817C120 74.8338 98.7474 75.0817 60 75.0817H0L0.2973 74.1897ZM63.619 69.0074C62.7018 68.0311 61.537 67.2323 61.0305 67.2323C60.5241 67.2323 59.7773 66.6112 59.371 65.8521C58.9647 65.093 58.6323 61.1288 58.6323 57.043V49.6141L59.9373 48.4331C60.655 47.7836 62.0197 47.2571 62.97 47.2631C63.9202 47.2688 65.079 47.5165 65.545 47.8128C66.0111 48.1091 66.7336 49.249 67.1506 50.3458C67.5676 51.4427 67.9068 54.8078 67.9044 57.8239C67.9017 61.3098 67.5089 64.0576 66.8265 65.3662C66.08 66.7974 65.9754 67.6926 66.4829 68.3042L67.2128 69.1837L66.2497 69.9831L65.2865 70.7824L63.619 69.0074ZM63.8062 62.0589C63.9937 60.7834 63.9861 57.7328 63.7895 55.2799C63.5929 52.827 63.1548 50.8201 62.8161 50.8201C62.4773 50.8201 62.2002 53.8706 62.2002 57.599C62.2002 61.3275 62.4849 64.378 62.8328 64.378C63.1807 64.378 63.6187 63.3344 63.8062 62.0589ZM47.8835 66.6273L46.1447 65.2209L45.9081 56.2365L45.6715 47.2522H47.491H49.3105L49.5115 55.5785L49.7126 63.9048L50.6046 64.2009L51.4965 64.497V55.8746V47.2522H53.2805H55.0644V56.0355C55.0644 61.9637 54.7745 65.1984 54.1724 65.9865C53.6819 66.6288 52.4574 67.3521 51.4514 67.594C50.195 67.8961 49.0779 67.5935 47.8835 66.6273ZM72.5146 66.1944L70.7631 64.4429V55.8001V47.1574L72.6187 47.3832L74.4744 47.609L74.5811 55.7544L74.6878 63.8999L75.5798 64.1984L76.4717 64.497V55.8746V47.2522H78.2557H80.0396V56.1719V65.0916L78.6125 66.5188C77.8275 67.3037 76.5285 67.9459 75.7257 67.9459C74.923 67.9459 73.478 67.1577 72.5146 66.1944ZM9.71299 57.4206L9.83056 47.609H13.3593H16.888L17.116 49.2145L17.3441 50.8201H15.5105H13.6769V53.3176V55.8151H15.1041C16.0555 55.8151 16.5312 56.2908 16.5312 57.2423C16.5312 58.1937 16.0555 58.6694 15.1041 58.6694H13.6769V61.5237V64.378H15.4608H17.2448V65.8052V67.2323H13.4201H9.59541L9.71299 57.4206ZM20.0991 57.2423V47.2522H21.883H23.667V55.8151V64.378H25.4509H27.2349V65.8052V67.2324H23.667H20.0991V57.2423ZM37.225 63.4838C37.225 61.4221 36.6148 57.6014 35.869 54.9934C35.1231 52.3855 34.291 49.5526 34.0199 48.6982L33.5268 47.1448L35.5314 47.3769L37.536 47.609L38.2076 50.4633L38.8792 53.3176L39.6777 50.4633L40.4762 47.609L42.0617 47.3809C43.0158 47.2437 43.6472 47.5288 43.6472 48.0968C43.6472 48.6159 43.005 51.2864 42.22 54.0312C41.4351 56.7759 40.7929 60.8691 40.7929 63.127V67.2323H39.0089H37.225V63.4838ZM83.6075 57.2423V47.2522H87.1754H90.7433V49.0361V50.8201H88.9594H87.1754V53.3176V55.8151H88.9594H90.7433V57.2423V58.6694H88.9594H87.1754V61.5237V64.378H88.9594H90.7433V65.8052V67.2324H87.1754H83.6075V57.2423ZM94.3112 57.2423V47.2522H97.4713C99.2989 47.2522 101.073 47.6941 101.679 48.3002L102.727 49.3482L102.773 58.2903L102.818 67.2324H101.062H99.3063V62.9509C99.3063 60.5723 98.9891 58.6694 98.5927 58.6694C98.1962 58.6694 97.8791 60.5723 97.8791 62.9509V67.2324H96.0952H94.3112L94.3112 57.2423ZM99.3062 53.0029C99.3062 51.8487 98.9851 50.7058 98.5927 50.4633C98.168 50.2008 97.8791 51.0505 97.8791 52.5619C97.8791 53.9587 98.2002 55.1015 98.5927 55.1015C98.9851 55.1015 99.3062 54.1571 99.3062 53.0029ZM106.442 57.2423V47.2522H108.226H110.01V57.2423V67.2324H108.226H106.442V57.2423ZM105.728 45.491C105.728 44.9148 106.611 43.9644 107.691 43.3788L109.653 42.3143L54.886 42.2857C18.8694 42.2669 0.118933 42.0128 0.118933 41.5436C0.118933 41.0735 20.5748 40.83 60.0595 40.83C99.5441 40.83 120 41.0735 120 41.5436C120 41.94 118.097 42.2571 115.719 42.2571H111.437V43.9519V45.6466L109.207 46.0926C107.981 46.3379 106.696 46.5386 106.353 46.5386C106.009 46.5386 105.728 46.0672 105.728 45.491ZM12.9652 36.3477C12.9662 35.8695 14.1247 33.5515 15.5397 31.1967C16.9547 28.8419 19.5272 25.2533 21.2563 23.2221C22.9854 21.1908 26.4027 18.0112 28.8502 16.1562C31.2978 14.3012 35.8692 11.5797 39.0089 10.1084C42.1487 8.6371 47.2405 6.91981 50.3241 6.2922C53.4077 5.66459 58.1576 5.15109 60.8794 5.15109C63.6013 5.15109 68.3033 5.64807 71.3284 6.25549C74.3535 6.8629 79.4914 8.62079 82.746 10.1619C86.0006 11.703 90.5508 14.4161 92.8575 16.1911C95.1641 17.966 98.5083 21.1236 100.289 23.2078C102.07 25.2921 104.664 28.8867 106.055 31.1958C107.445 33.5049 108.583 35.6539 108.583 35.9714C108.583 36.2888 108.275 36.5485 107.899 36.5485C107.523 36.5485 106.344 35.0232 105.278 33.159C104.212 31.2948 101.628 27.617 99.5355 24.9862C97.4428 22.3553 93.7255 18.782 91.2746 17.0454C88.8238 15.3087 85.3891 13.1669 83.6419 12.2858C81.8946 11.4046 78.8441 10.1262 76.8629 9.4447C74.8816 8.76324 70.4509 7.78781 67.0168 7.27707L60.773 6.34845L54.5292 7.25829C51.0951 7.75871 45.8771 9.08985 42.9336 10.2164C39.9901 11.3429 35.6195 13.55 33.2211 15.1211C30.8228 16.6922 26.6478 20.3096 23.9434 23.16C21.2389 26.0103 18.0634 30.1851 16.8867 32.4372C15.71 34.6894 14.3459 36.6862 13.8553 36.8747C13.3647 37.0631 12.9642 36.826 12.9652 36.3477ZM7.96828 34.3841C7.96828 33.9785 8.7596 32.0852 9.72675 30.1766C10.6939 28.268 13.42 24.3014 15.7847 21.3619C18.1493 18.4225 22.4155 14.2347 25.265 12.0558C28.1146 9.87692 32.8543 6.95407 35.7978 5.56058C38.7413 4.1671 43.8473 2.34591 47.1443 1.51349L53.1391 0L62.8431 0.306304L72.5471 0.612603L79.3175 2.92515C83.0413 4.19705 87.6973 6.21705 89.6644 7.41404C91.6314 8.61103 94.976 10.9165 97.0969 12.5372C99.2177 14.158 102.808 17.6875 105.075 20.3806C107.341 23.0737 110.36 27.4921 111.783 30.1992C113.453 33.3775 114.039 35.1155 113.438 35.1048C112.926 35.0958 111.223 32.8021 109.653 30.0078C108.083 27.2135 104.748 22.71 102.24 20C99.7333 17.29 95.6523 13.6243 93.1715 11.854C90.6907 10.0838 86.1593 7.55586 83.1016 6.23641C80.0439 4.91697 75.067 3.33023 72.042 2.71032C69.0169 2.0904 64.1482 1.5832 61.2227 1.5832C58.2971 1.5832 53.5142 2.04037 50.5938 2.59912C47.6735 3.15788 42.8494 4.56042 39.8738 5.71587C36.8981 6.87133 32.4356 9.18108 29.9572 10.8486C27.4788 12.5162 23.8969 15.3684 21.9975 17.1868C20.0981 19.0052 17.1669 22.4197 15.4838 24.7745C13.8007 27.1293 11.7357 30.4207 10.895 32.0887C10.0543 33.7566 9.05185 35.1214 8.66736 35.1214C8.28287 35.1214 7.96828 34.7896 7.96828 34.3841ZM51.366 14.1127L51.0701 11.5783L52.4255 11.1481C53.171 10.9115 54.0825 11.0195 54.4511 11.3881C54.8196 11.7567 55.1887 12.9927 55.2712 14.1349L55.4212 16.2115L53.5415 16.4294L51.6619 16.6472L51.366 14.1127ZM54.113 14.6655C53.8513 14.4038 53.4232 14.4038 53.1615 14.6655C52.8999 14.9271 53.114 15.1412 53.6373 15.1412C54.1605 15.1412 54.3746 14.9271 54.113 14.6655ZM53.6373 12.6437C53.6373 12.4474 53.4767 12.2869 53.2805 12.2869C53.0842 12.2869 52.9237 12.4474 52.9237 12.6437C52.9237 12.8399 53.0842 13.0004 53.2805 13.0004C53.4767 13.0004 53.6373 12.8399 53.6373 12.6437ZM64.2545 16.2441C64.0644 16.0539 64.0412 14.7647 64.2029 13.379L64.4971 10.8597H65.7588C66.4527 10.8597 67.4315 11.355 67.9339 11.9603L68.8473 13.0609L68.077 13.8312C67.6534 14.2549 67.4766 15.044 67.6841 15.5849C67.8917 16.1258 67.725 16.5683 67.3137 16.5683C66.9024 16.5683 66.3462 16.2129 66.0778 15.7786L65.5897 14.9888L65.095 15.7893C64.8229 16.2296 64.4447 16.4342 64.2545 16.2441ZM66.9574 12.5247C66.6957 12.2631 66.2676 12.2631 66.0059 12.5247C65.7443 12.7864 65.9584 13.0004 66.4817 13.0004C67.0049 13.0004 67.219 12.7864 66.9574 12.5247ZM57.6213 14.4633C57.8739 13.855 58.2422 12.7953 58.4397 12.1085C58.6372 11.4217 59.2509 10.8597 59.8036 10.8597C60.3562 10.8597 61.1215 11.6834 61.5043 12.6901C61.887 13.6968 62.2002 14.7565 62.2002 15.0449C62.2002 15.3333 61.0666 15.5693 59.6811 15.5693H57.162L57.6213 14.4633ZM60.0595 13.3572C60.0595 13.161 59.8989 13.0004 59.7027 13.0004C59.5064 13.0004 59.3459 13.161 59.3459 13.3572C59.3459 13.5535 59.5064 13.714 59.7027 13.714C59.8989 13.714 60.0595 13.5535 60.0595 13.3572Z" fill="black"/>
</svg>
